<svg width="48" height="48" viewBox="0 0 48 48" fill="none" xmlns="http://www.w3.org/2000/svg">
<path fill-rule="evenodd" clip-rule="evenodd" d="M24 1.69702L1.69702 24L24 46.3029L46.3029 24L24 1.69702Z" stroke="#111111" stroke-width="2"/>
<path fill-rule="evenodd" clip-rule="evenodd" d="M23.1515 6.84862L24.3515 8.04862V6.35156L23.1515 7.55156H23.6485H24.8485L23.6485 6.35156V8.04862L24.8485 6.84862H23.1515Z" stroke="#111111" stroke-width="2"/>
<path fill-rule="evenodd" clip-rule="evenodd" d="M23.1515 40.4485L24.3515 41.6485V39.9514L23.1515 41.1514H24.8485L23.6485 39.9514V41.6485L24.8485 40.4485H23.1515Z" stroke="#111111" stroke-width="2"/>
<path fill-rule="evenodd" clip-rule="evenodd" d="M6.3515 23.6484L7.5515 24.8484V23.1514L6.3515 24.3514H8.04856L6.84856 23.1514V24.8484L8.04856 23.6484H6.3515Z" stroke="#111111" stroke-width="2"/>
<path fill-rule="evenodd" clip-rule="evenodd" d="M39.9515 23.6484L41.1515 24.8484V23.1514L39.9515 24.3514H41.6485L40.4485 23.1514V24.8484L41.6485 23.6484H39.9515Z" stroke="#111111" stroke-width="2"/>
<path d="M7.84803 38.4126C10.1119 40.6764 15.3367 39.3877 21.1299 35.5992M26.8992 31.1288C27.6245 30.4773 28.3467 29.7933 29.0612 29.0788C37.4966 20.6434 41.6754 11.146 38.395 7.86556C37.4217 6.89222 35.901 6.57559 34.0232 6.83199" stroke="#111111" stroke-width="2" stroke-linecap="round" stroke-linejoin="round"/>
<path d="M41.1734 34.2205C41.3858 36.0156 41.059 37.4704 40.1169 38.4125C38.0724 40.457 33.6131 39.6041 28.5011 36.6292C26.2325 35.309 23.8354 33.5709 21.4637 31.4826C20.6046 30.7262 19.7488 29.9238 18.9037 29.0787C10.4684 20.6434 6.28947 11.1459 9.56988 7.86549C10.5387 6.89667 12.0498 6.57847 13.9156 6.82838" stroke="#111111" stroke-width="2" stroke-linecap="round" stroke-linejoin="round"/>
</svg>
