<svg width="48" height="48" viewBox="0 0 48 48" fill="none" xmlns="http://www.w3.org/2000/svg">
<g clip-path="url(#clip0)">
<path fill-rule="evenodd" clip-rule="evenodd" d="M43 40.993C43 41.548 42.547 42 41.996 42H6.004C5.87187 42.0001 5.741 41.9742 5.61894 41.9236C5.49687 41.873 5.386 41.7987 5.29271 41.7052C5.19941 41.6116 5.12553 41.5005 5.0753 41.3783C5.02506 41.2561 4.99948 41.1251 5 40.993V14H43V40.993ZM6.004 6H41.996C42.549 6 42.995 6.445 42.999 7L43 7.007V12H5V7.007L5.001 7C5.005 6.449 5.455 6 6.004 6ZM44.999 7C44.9985 6.20399 44.6818 5.44079 44.1187 4.8782C43.5555 4.31562 42.792 3.99973 41.996 4H6.004C5.65 4 5.315 4.072 5 4.185C4.41744 4.39119 3.91277 4.77226 3.55497 5.27612C3.19717 5.77997 3.0037 6.38203 3.001 7L3 7.007V40.993C2.99948 41.3878 3.0768 41.7788 3.22754 42.1437C3.37828 42.5085 3.59949 42.8401 3.8785 43.1194C4.15751 43.3987 4.48886 43.6202 4.85357 43.7713C5.21829 43.9224 5.60922 44.0001 6.004 44H41.996C42.7928 43.9987 43.5566 43.6813 44.1198 43.1176C44.6829 42.5539 44.9995 41.7898 45 40.993V7.007L44.999 7ZM32 19H37V21H31V19H32ZM25.857 21H11V19H27V21H25.857ZM22 27H11V25H29V27H22ZM11 31H19V33H11V31Z" fill="#111111"/>
</g>
<defs>
<clipPath id="clip0">
<rect width="42" height="40" fill="white" transform="translate(3 4)"/>
</clipPath>
</defs>
</svg>
