<svg width="48" height="48" viewBox="0 0 48 48" fill="none" xmlns="http://www.w3.org/2000/svg">
<path fill-rule="evenodd" clip-rule="evenodd" d="M15 21H14V23H25V21H15ZM15 15H14V17H33V15H15ZM37 22V10H11V38H37V22ZM37 40H11V44C11 45.1 11.896 46 12.997 46H35.004C35.5336 45.9984 36.041 45.7871 36.415 45.4122C36.7891 45.0374 36.9995 44.5296 37 44V40ZM11 8H37V4C37 2.9 36.104 2 35.004 2H12.997C12.4673 2.00159 11.9599 2.2129 11.5856 2.58772C11.2113 2.96253 11.0008 3.47033 11 4V8ZM39 4V44C39 46.206 37.205 48 35.004 48H12.997C11.937 47.9981 10.9209 47.576 10.1717 46.8262C9.42241 46.0764 9.00106 45.06 9 44V4C9 1.794 10.795 0 12.997 0H35.004C36.0639 0.00185319 37.0799 0.424003 37.829 1.17386C38.5781 1.92372 38.9992 2.94007 39 4ZM24 42C23.7348 42 23.4804 42.1054 23.2929 42.2929C23.1054 42.4804 23 42.7348 23 43C23 43.2652 23.1054 43.5196 23.2929 43.7071C23.4804 43.8946 23.7348 44 24 44C24.2652 44 24.5196 43.8946 24.7071 43.7071C24.8946 43.5196 25 43.2652 25 43C25 42.7348 24.8946 42.4804 24.7071 42.2929C24.5196 42.1054 24.2652 42 24 42ZM20 5C20 4.73478 20.1054 4.48043 20.2929 4.29289C20.4804 4.10536 20.7348 4 21 4H27C27.2652 4 27.5196 4.10536 27.7071 4.29289C27.8946 4.48043 28 4.73478 28 5C28 5.26522 27.8946 5.51957 27.7071 5.70711C27.5196 5.89464 27.2652 6 27 6H21C20.7348 6 20.4804 5.89464 20.2929 5.70711C20.1054 5.51957 20 5.26522 20 5Z" fill="#111111"/>
</svg>
