<svg width="48" height="48" viewBox="0 0 48 48" fill="none" xmlns="http://www.w3.org/2000/svg">
<path fill-rule="evenodd" clip-rule="evenodd" d="M23.426 29.0831L26.255 31.9121L27.669 30.4971L29.083 31.9121L27.669 33.3261L33.326 38.9831L34.74 37.5691L36.154 38.9831L34.74 40.3971L36.861 42.5181L42.518 36.8611L29.083 23.4261L30.497 22.0121L24.134 15.6481L22.719 17.0621L9.99101 4.3351L4.33501 9.9901L6.45501 12.1121L7.87001 10.6981L9.28401 12.1131L7.87001 13.5271L13.527 19.1841L14.941 17.7701L16.355 19.1841L14.941 20.5981L17.062 22.7191L15.648 24.1341L22.012 30.4971L23.426 29.0831ZM9.99101 1.5061L45.347 36.8611L36.861 45.3471L1.50601 9.9901L9.99101 1.5061ZM12.82 12.8201L14.234 14.2341L11.406 17.0621L9.99101 15.6481L12.82 12.8201ZM32.619 32.6191L34.033 34.0331L31.205 36.8611L29.79 35.4471L32.619 32.6191Z" fill="#111111"/>
<path fill-rule="evenodd" clip-rule="evenodd" d="M9.453 40.9112L5.717 37.1762L4.596 42.0322L9.453 40.9122V40.9112ZM22.166 28.7052L23.58 27.2912L27.823 23.0482L29.237 21.6342L37.99 12.8812L33.748 8.63819L24.995 17.3912L23.58 18.8052L19.338 23.0482L17.924 24.4622L6.878 35.5082L11.12 39.7512L22.166 28.7052ZM42.239 8.63219C42.4239 8.44395 42.527 8.19032 42.5259 7.92646C42.5248 7.66259 42.4195 7.40985 42.233 7.22319L39.405 4.39519C39.3129 4.30209 39.2033 4.22808 39.0826 4.17738C38.9618 4.12668 38.8322 4.1003 38.7012 4.09974C38.5703 4.09919 38.4405 4.12446 38.3193 4.17413C38.1981 4.2238 38.0879 4.29688 37.995 4.38919L35.162 7.22319L39.405 11.4662L42.239 8.63219ZM4.049 35.5082L16.509 23.0482L23.579 15.9762L36.582 2.97619C36.8604 2.69807 37.1909 2.47757 37.5546 2.32728C37.9183 2.177 38.308 2.09988 38.7015 2.10034C39.0951 2.10081 39.4846 2.17884 39.848 2.32999C40.2113 2.48113 40.5413 2.70242 40.819 2.98119L43.647 5.80919C44.2089 6.37064 44.5252 7.1321 44.5263 7.92645C44.5274 8.7208 44.2133 9.48315 43.653 10.0462L40.819 12.8802L40.549 13.1502L39.405 14.2952L30.652 23.0482L23.58 30.1192L12.535 41.1652L11.121 42.5792L3.877 44.2512C2.809 44.4972 2.129 43.8272 2.377 42.7512L4.049 35.5082Z" fill="#111111"/>
</svg>
